<svg width="43" height="28" viewBox="0 0 43 28" xmlns="http://www.w3.org/2000/svg"><path d="M20.322 21.18l-9.128-9.212c-.517-.512-.517-1.194 0-1.706l9.3-9.212c.517-.512 1.206-.512 1.722 0l9.3 9.212c.517.512.517 1.194 0 1.706l-9.3 9.212a1.36 1.36 0 0 1-1.894 0m-2.583-11.09c-.689-.682-1.722-.682-2.239 0-.689.682-.689 1.706 0 2.218.689.682 1.722.682 2.239 0 .689-.682.689-1.535 0-2.218m4.65 4.606c-.689-.682-1.722-.682-2.239 0-.689.682-.689 1.706 0 2.218.689.682 1.722.682 2.239 0 .689-.512.689-1.535 0-2.218M24.8 10.09c-.689.682-.689 1.706 0 2.218.689.682 1.722.682 2.239 0 .689-.682.689-1.706 0-2.218-.517-.682-1.55-.682-2.239 0m-4.65-2.388c.689.682 1.722.682 2.239 0 .689-.682.689-1.706 0-2.218-.689-.682-1.722-.682-2.239 0-.517.512-.517 1.535 0 2.218m17.567 16.03H4.995c-.344 0-.689.341-.689.682v2.047c0 .341.344.682.689.682h32.894c.344 0 .689-.341.689-.682v-2.047c-.172-.341-.517-.682-.861-.682M4.994 21.685H15.5c.172 0 .344 0 .517-.171.172-.171.172-.171.172-.341v-.341c0-.171 0-.341-.172-.512L1.378 6.161c-.172-.171-.344-.171-.517-.171-.172 0-.344 0-.517.171-.172.171-.344.171-.344.341v.512l4.133 14.159a.95.95 0 0 0 .861.512m32.723 0H27.211c-.172 0-.344 0-.517-.171-.172-.171-.172-.171-.172-.341v-.341c0-.171 0-.341.172-.512L41.333 6.161c.172-.171.344-.171.517-.171.172 0 .344 0 .517.171.172.171.172.171.172.341v.512l-4.133 14.159c0 .341-.344.512-.689.512" fill="#484b68" fill-rule="evenodd"/></svg>